<?xml version="1.0" encoding="UTF-8"?>
<svg version="1.1" xmlns="http://www.w3.org/2000/svg" width="984" height="1263">
<path d="M0 0 C1.42708282 0.01450195 1.42708282 0.01450195 2.88299561 0.02929688 C74.73790345 0.77177542 147.06841375 5.5719713 217 23 C218.07282227 23.26216309 219.14564453 23.52432617 220.25097656 23.79443359 C234.48140809 27.302615 248.40621258 31.64471943 262.3125 36.25 C263.10892914 36.512435 263.90535828 36.77487 264.72592163 37.04525757 C267.00346602 37.79871782 269.27763341 38.56151498 271.55078125 39.328125 C272.22984528 39.55291031 272.9089093 39.77769562 273.60855103 40.0092926 C282.62677815 43.08885924 282.62677815 43.08885924 285.3269043 46.84667969 C285.65601807 47.53149414 285.98513184 48.21630859 286.32421875 48.921875 C286.70771484 49.69257324 287.09121094 50.46327148 287.48632812 51.25732422 C287.88271484 52.07990723 288.27910156 52.90249023 288.6875 53.75 C295.65898686 67.56979331 304.27213497 79.98553376 314 92 C314.46132324 92.57105469 314.92264648 93.14210938 315.39794922 93.73046875 C338.85049931 122.51206087 370.58269883 144.59794231 408.26171875 148.46484375 C422.48796928 149.68508373 436.82590692 148.62852304 450.5546875 144.5859375 C453.12620447 143.96975931 455.36623996 143.95890743 458 144 C456.57073295 154.46274314 454.88225191 164.86389424 453.09619141 175.27026367 C452.80554849 176.97215929 452.51507154 178.67408325 452.2247448 180.37603283 C451.43517401 185.00171031 450.6432344 189.6269794 449.85085106 194.25217581 C449.00106917 199.2148131 448.15345333 204.17782042 447.30554199 209.14077759 C445.65627222 218.79201939 444.0048889 228.44289839 442.35274291 238.0936482 C441.00146381 245.98721752 439.65105991 253.88093616 438.3012085 261.77474976 C427.14575436 327.01000049 415.95967612 392.23996615 404.74658203 457.46533203 C403.59404376 464.16959089 402.44153613 470.87385502 401.2890625 477.578125 C401.14512888 478.41541625 401.00119527 479.25270751 400.85290003 480.11537123 C392.91113716 526.3148748 384.99180732 572.518224 377.07262707 618.72160292 C376.3088872 623.17751576 375.54512792 627.63342527 374.78136861 632.08933479 C371.50587542 651.1991667 368.23049106 670.30901726 364.95529175 689.41889954 C359.62712464 720.50724755 354.29824851 751.59547395 348.96875 782.68359375 C348.78342988 783.76460704 348.59810976 784.84562033 348.40717387 785.95939159 C346.72390662 795.77825513 345.04063099 805.59711722 343.35734463 815.41597748 C340.75126516 830.6176389 338.14526439 845.81931381 335.53930664 861.02099609 C329.03342561 898.97256506 322.52745996 936.92411951 316.02073383 974.87554359 C315.61856388 977.22125878 315.21639402 979.56697399 314.81422424 981.91268921 C314.61504153 983.07445211 314.41585881 984.236215 314.21064025 985.43318284 C312.80936253 993.60637724 311.40813925 1001.77958098 310.00694275 1009.95278931 C309.21402096 1014.57790141 308.42109751 1019.20301322 307.62817383 1023.828125 C307.43285486 1024.96742234 307.23753588 1026.10671968 307.03629816 1027.28054118 C304.7149528 1040.82090542 302.39331946 1054.36122022 300.0712263 1067.90145624 C298.04985646 1079.68817065 296.02870945 1091.47492325 294.0078125 1103.26171875 C293.83181621 1104.28819629 293.65581992 1105.31467383 293.4744904 1106.37225676 C289.06849005 1132.07038392 284.66971667 1157.76972207 280.28751183 1183.47191811 C279.57295327 1187.66275077 278.85792344 1191.85350293 278.14277649 1196.04423523 C277.69551978 1198.66531264 277.24827307 1201.28639175 276.80102539 1203.9074707 C276.58848271 1205.15300941 276.37594004 1206.39854811 276.15695667 1207.68183041 C274.95600341 1214.72154343 273.75794892 1221.76174136 272.56238174 1228.80237103 C271.86525782 1232.9042723 271.16567313 1237.00575082 270.4653511 1241.10710716 C270.15219166 1242.94452786 269.84015081 1244.78213963 269.52933884 1246.61995888 C269.11788577 1249.05247716 268.70264779 1251.48431796 268.28637695 1253.91601562 C268.16876983 1254.61739749 268.0511627 1255.31877935 267.92999172 1256.04141521 C267.11411829 1260.77176342 267.11411829 1260.77176342 266 1263 C219.94777005 1263.01722173 173.89553981 1263.03312756 127.8433075 1263.04234314 C126.8111492 1263.04255023 126.8111492 1263.04255023 125.75813922 1263.04276149 C110.78236874 1263.04575854 95.80659823 1263.04852813 80.83082767 1263.05106533 C73.48039878 1263.05231202 66.1299699 1263.05360866 58.77954102 1263.05493164 C58.04831602 1263.0550624 57.31709102 1263.05519316 56.56370769 1263.05532788 C33.11577306 1263.05954408 9.66784093 1263.0670202 -13.78009221 1263.07629722 C-37.99644931 1263.08586023 -62.21280504 1263.09191489 -86.429164 1263.09391499 C-89.89636235 1263.0942029 -93.3635607 1263.09452853 -96.83075905 1263.09487724 C-97.51275826 1263.09494467 -98.19475748 1263.09501209 -98.89742334 1263.09508156 C-108.96284914 1263.09616588 -119.02827025 1263.10012321 -129.09369469 1263.10573006 C-197.06889986 1263.14252216 -265.02964078 1262.83552359 -333 1262 C-334.58327555 1257.39867633 -335.66869536 1252.8926319 -336.47212219 1248.10070801 C-336.60693125 1247.31990922 -336.74174031 1246.53911044 -336.88063449 1245.73465109 C-337.33155456 1243.11616498 -337.77573275 1240.49658052 -338.2199707 1237.87695312 C-338.54490163 1235.98189388 -338.87025381 1234.08690682 -339.19599152 1232.19198608 C-339.90286041 1228.07436807 -340.60670652 1223.95624843 -341.30826759 1219.83772278 C-342.44549785 1213.16165167 -343.58928802 1206.48671389 -344.73381042 1199.81188965 C-346.39192098 1190.13776796 -348.04686336 1180.46310882 -349.69970703 1170.78808594 C-352.33899986 1155.33962438 -354.98506527 1139.89232703 -357.6328125 1124.4453125 C-357.8555178 1123.14602058 -358.07822309 1121.84672867 -358.30767703 1120.50806427 C-359.21349548 1115.22347406 -360.11934947 1109.93888994 -361.02530706 1104.65432358 C-362.17312921 1097.95888671 -363.32076498 1091.263418 -364.4679451 1084.56787109 C-370.76745415 1047.80088802 -377.08937237 1011.03785259 -383.44921875 974.28125 C-383.6373395 973.19398117 -383.82546025 972.10671234 -384.01928163 970.98649597 C-386.28053062 957.91795021 -388.54313184 944.84963872 -390.80621356 931.78141022 C-394.4355475 910.82341085 -398.06244804 889.86499042 -401.6875 868.90625 C-401.87778518 867.80611824 -402.06807037 866.70598648 -402.26412177 865.5725174 C-411.9283337 809.69625554 -421.52205224 753.80790827 -431.11457825 697.91930389 C-434.17979226 680.06065543 -437.24546716 662.2020862 -440.3125 644.34375 C-440.61510365 642.58178724 -440.61510365 642.58178724 -440.9238205 640.78422928 C-449.50719936 590.80876004 -458.14253778 540.8423325 -466.79037994 490.87798369 C-479.72247393 416.16002356 -492.63045638 341.43793136 -505.48625338 266.70680499 C-505.81766001 264.78033252 -505.81766001 264.78033252 -506.15576172 262.81494141 C-506.37581481 261.53575435 -506.59586791 260.25656729 -506.82258928 258.93861699 C-508.36401313 249.97917519 -509.90719824 241.02003787 -511.45117188 232.06103516 C-513.31744646 221.23168375 -515.18138894 210.40193426 -517.04221028 199.57164443 C-517.99422391 194.03108331 -518.94730269 188.49071092 -519.90319252 182.95081711 C-520.78036352 177.86687493 -521.65445048 172.78241268 -522.52603436 167.69750977 C-522.84306537 165.85118479 -523.16123733 164.00505531 -523.48063183 162.15913773 C-523.91295821 159.65953564 -524.3412024 157.15926813 -524.76838684 154.65878296 C-524.89488957 153.93319636 -525.0213923 153.20760976 -525.15172845 152.46003568 C-525.69952763 149.22890833 -526 146.29324754 -526 143 C-525.03449219 143.144375 -524.06898438 143.28875 -523.07421875 143.4375 C-500.03762094 146.52312597 -474.73644887 147.10623578 -452 142 C-451.20787109 141.82839355 -450.41574219 141.65678711 -449.59960938 141.47998047 C-438.13695857 138.93297764 -427.49621526 135.25854124 -417 130 C-416.32839844 129.66484375 -415.65679687 129.3296875 -414.96484375 128.984375 C-404.83585097 123.83338816 -396.32708046 117.70817583 -388 110 C-387.19046875 109.27167969 -386.3809375 108.54335937 -385.546875 107.79296875 C-372.74004503 95.72499435 -361.83408073 78.59683451 -357.12109375 61.625 C-356.66017334 60.00634033 -356.66017334 60.00634033 -356.18994141 58.35498047 C-355.61932429 56.2544617 -355.10388476 54.13790508 -354.65380859 52.00830078 C-353.79585567 48.81972589 -352.98932789 46.6456238 -351 44 C-346.88266544 41.74777707 -342.66580774 40.57410841 -338.13265991 39.50689697 C-336.04352467 39.01034507 -333.98203018 38.45279382 -331.9152832 37.87060547 C-327.46221044 36.62847167 -322.98600518 35.49161255 -318.5 34.375 C-317.66374084 34.16612152 -316.82748169 33.95724304 -315.96588135 33.74203491 C-216.75728298 9.12611621 -114.17451692 -0.88323907 0 0 Z " fill="#FEFEFE" transform="translate(526,0)"/>
<path d="M0 0 C5.50012001 1.89353127 11.03260037 3.58808359 16.625 5.1875 C21.93086824 6.71576943 27.06700811 8.37370543 32.15283203 10.54345703 C35.1545478 11.76409232 38.19070009 12.83418813 41.25 13.90234375 C48.4601613 16.46551931 55.55445385 19.25923492 62.625 22.1875 C63.2426825 22.44311707 63.86036499 22.69873413 64.49676514 22.96209717 C77.5064683 28.36268843 90.21992515 34.31110674 102.8125 40.625 C103.66489258 41.04990723 104.51728516 41.47481445 105.39550781 41.91259766 C123.42110103 50.9540632 140.72051489 61.45695786 156.8125 73.625 C157.3904834 74.06021973 157.9684668 74.49543945 158.56396484 74.94384766 C167.07114668 81.38741766 175.11789494 88.2270855 182.8125 95.625 C183.4936084 96.27355957 184.1747168 96.92211914 184.87646484 97.59033203 C220.96830407 132.11674209 245.39268202 177.58093904 247.0859375 228.28125 C247.44382497 247.89827174 245.54893235 266.36582676 241.8125 285.625 C241.64733887 286.50172363 241.48217773 287.37844727 241.31201172 288.28173828 C230.12361595 346.25571811 196.44951768 401.48044247 160.8125 447.625 C160.39436035 448.16785645 159.9762207 448.71071289 159.54541016 449.27001953 C148.63216749 463.40826277 136.9991001 476.89164895 125.03515625 490.1484375 C121.92720353 493.61142875 118.86658263 497.11454748 115.8125 500.625 C117.06675781 501.01945312 118.32101562 501.41390625 119.61328125 501.8203125 C125.23711606 503.69821097 130.59474411 506.07402928 136 508.5 C138.22487522 509.48914813 140.45015333 510.47739039 142.67578125 511.46484375 C144.42109131 512.23997314 144.42109131 512.23997314 146.20166016 513.03076172 C151.71788962 515.46625722 157.25416468 517.85488302 162.79064941 520.24383545 C172.80236175 524.56480519 182.79253157 528.93006743 192.75 533.375 C208.11701284 540.23454571 223.55118425 546.93910047 238.9828949 553.65145874 C246.59776127 556.96455759 254.20586669 560.29304993 261.8125 563.625 C261.26947324 570.89209101 260.33088569 577.95413899 258.921875 585.1015625 C258.7370607 586.06149109 258.5522464 587.02141968 258.36183167 588.01043701 C257.76725343 591.09132445 257.1649992 594.17065279 256.5625 597.25 C256.14826407 599.3887538 255.7344478 601.52758893 255.32104492 603.66650391 C253.11678728 615.04834045 250.87405499 626.42187536 248.55786133 637.78149414 C247.40854245 643.47154025 246.34131825 649.17254204 245.3203125 654.88671875 C245.19011215 655.61340759 245.0599118 656.34009644 244.92576599 657.08880615 C244.28969812 660.64490012 243.660197 664.20194559 243.04223633 667.76123047 C241.8338727 674.61965263 240.44001552 681.37242996 238.71704102 688.11889648 C238.53315071 688.84636833 238.34926041 689.57384018 238.15979767 690.32335663 C237.71266015 692.09106845 237.26286434 693.85810753 236.8125 695.625 C221.18897027 700.65459825 205.50209615 703.72036742 189.1875 705.5 C187.95686703 705.63525085 186.72623405 705.77050171 185.45830917 705.90985107 C154.15535094 708.92840009 128.12082037 702.29196754 103.55270004 682.35752177 C79.29968129 662.19607107 57.28371304 639.49925669 35.625 616.625 C34.72993964 615.68115291 33.83487928 614.73730581 32.91269588 613.76485729 C26.63983687 607.14429834 20.39577332 600.49742608 14.17529297 593.82763672 C13.39095328 592.9868376 12.60661358 592.14603848 11.79850602 591.2797606 C-4.55314435 573.70383939 -20.2921014 555.62608625 -36.1875 537.625 C-36.5175 591.085 -36.8475 644.545 -37.1875 699.625 C-83.7175 699.625 -130.2475 699.625 -178.1875 699.625 C-178.1875 467.635 -178.1875 235.645 -178.1875 -3.375 C-19.43314922 -6.78907206 -19.43314922 -6.78907206 0 0 Z " fill="#E6212B" transform="translate(537.1875,399.375)"/>
<path d="M0 0 C1.42708282 0.01450195 1.42708282 0.01450195 2.88299561 0.02929688 C74.73790345 0.77177542 147.06841375 5.5719713 217 23 C218.07282227 23.26216309 219.14564453 23.52432617 220.25097656 23.79443359 C234.48140809 27.302615 248.40621258 31.64471943 262.3125 36.25 C263.10892914 36.512435 263.90535828 36.77487 264.72592163 37.04525757 C267.00346602 37.79871782 269.27763341 38.56151498 271.55078125 39.328125 C272.22984528 39.55291031 272.9089093 39.77769562 273.60855103 40.0092926 C282.62677815 43.08885924 282.62677815 43.08885924 285.3269043 46.84667969 C285.65601807 47.53149414 285.98513184 48.21630859 286.32421875 48.921875 C286.70771484 49.69257324 287.09121094 50.46327148 287.48632812 51.25732422 C287.88271484 52.07990723 288.27910156 52.90249023 288.6875 53.75 C295.65898686 67.56979331 304.27213497 79.98553376 314 92 C314.46132324 92.57105469 314.92264648 93.14210938 315.39794922 93.73046875 C338.85049931 122.51206087 370.58269883 144.59794231 408.26171875 148.46484375 C422.48796928 149.68508373 436.82590692 148.62852304 450.5546875 144.5859375 C453.12620447 143.96975931 455.36623996 143.95890743 458 144 C456.57073295 154.46274314 454.88225191 164.86389424 453.09619141 175.27026367 C452.80554849 176.97215929 452.51507154 178.67408325 452.2247448 180.37603283 C451.43517401 185.00171031 450.6432344 189.6269794 449.85085106 194.25217581 C449.00106917 199.2148131 448.15345333 204.17782042 447.30554199 209.14077759 C445.65627222 218.79201939 444.0048889 228.44289839 442.35274291 238.0936482 C441.00146381 245.98721752 439.65105991 253.88093616 438.3012085 261.77474976 C427.14575436 327.01000049 415.95967612 392.23996615 404.74658203 457.46533203 C403.59404376 464.16959089 402.44153613 470.87385502 401.2890625 477.578125 C401.14512888 478.41541625 401.00119527 479.25270751 400.85290003 480.11537123 C392.91113716 526.3148748 384.99180732 572.518224 377.07262707 618.72160292 C376.3088872 623.17751576 375.54512792 627.63342527 374.78136861 632.08933479 C371.50587542 651.1991667 368.23049106 670.30901726 364.95529175 689.41889954 C359.62712464 720.50724755 354.29824851 751.59547395 348.96875 782.68359375 C348.78342988 783.76460704 348.59810976 784.84562033 348.40717387 785.95939159 C346.72390662 795.77825513 345.04063099 805.59711722 343.35734463 815.41597748 C340.75126516 830.6176389 338.14526439 845.81931381 335.53930664 861.02099609 C329.03342561 898.97256506 322.52745996 936.92411951 316.02073383 974.87554359 C315.61856388 977.22125878 315.21639402 979.56697399 314.81422424 981.91268921 C314.61504153 983.07445211 314.41585881 984.236215 314.21064025 985.43318284 C312.80936253 993.60637724 311.40813925 1001.77958098 310.00694275 1009.95278931 C309.21402096 1014.57790141 308.42109751 1019.20301322 307.62817383 1023.828125 C307.43285486 1024.96742234 307.23753588 1026.10671968 307.03629816 1027.28054118 C304.7149528 1040.82090542 302.39331946 1054.36122022 300.0712263 1067.90145624 C298.04985646 1079.68817065 296.02870945 1091.47492325 294.0078125 1103.26171875 C293.83181621 1104.28819629 293.65581992 1105.31467383 293.4744904 1106.37225676 C289.06849005 1132.07038392 284.66971667 1157.76972207 280.28751183 1183.47191811 C279.57295327 1187.66275077 278.85792344 1191.85350293 278.14277649 1196.04423523 C277.69551978 1198.66531264 277.24827307 1201.28639175 276.80102539 1203.9074707 C276.58848271 1205.15300941 276.37594004 1206.39854811 276.15695667 1207.68183041 C274.95600341 1214.72154343 273.75794892 1221.76174136 272.56238174 1228.80237103 C271.86525782 1232.9042723 271.16567313 1237.00575082 270.4653511 1241.10710716 C270.15219166 1242.94452786 269.84015081 1244.78213963 269.52933884 1246.61995888 C269.11788577 1249.05247716 268.70264779 1251.48431796 268.28637695 1253.91601562 C268.16876983 1254.61739749 268.0511627 1255.31877935 267.92999172 1256.04141521 C267.11411829 1260.77176342 267.11411829 1260.77176342 266 1263 C219.94777005 1263.01722173 173.89553981 1263.03312756 127.8433075 1263.04234314 C126.8111492 1263.04255023 126.8111492 1263.04255023 125.75813922 1263.04276149 C110.78236874 1263.04575854 95.80659823 1263.04852813 80.83082767 1263.05106533 C73.48039878 1263.05231202 66.1299699 1263.05360866 58.77954102 1263.05493164 C58.04831602 1263.0550624 57.31709102 1263.05519316 56.56370769 1263.05532788 C33.11577306 1263.05954408 9.66784093 1263.0670202 -13.78009221 1263.07629722 C-37.99644931 1263.08586023 -62.21280504 1263.09191489 -86.429164 1263.09391499 C-89.89636235 1263.0942029 -93.3635607 1263.09452853 -96.83075905 1263.09487724 C-97.51275826 1263.09494467 -98.19475748 1263.09501209 -98.89742334 1263.09508156 C-108.96284914 1263.09616588 -119.02827025 1263.10012321 -129.09369469 1263.10573006 C-197.06889986 1263.14252216 -265.02964078 1262.83552359 -333 1262 C-334.58327555 1257.39867633 -335.66869536 1252.8926319 -336.47212219 1248.10070801 C-336.60693125 1247.31990922 -336.74174031 1246.53911044 -336.88063449 1245.73465109 C-337.33155456 1243.11616498 -337.77573275 1240.49658052 -338.2199707 1237.87695312 C-338.54490163 1235.98189388 -338.87025381 1234.08690682 -339.19599152 1232.19198608 C-339.90286041 1228.07436807 -340.60670652 1223.95624843 -341.30826759 1219.83772278 C-342.44549785 1213.16165167 -343.58928802 1206.48671389 -344.73381042 1199.81188965 C-346.39192098 1190.13776796 -348.04686336 1180.46310882 -349.69970703 1170.78808594 C-352.33899986 1155.33962438 -354.98506527 1139.89232703 -357.6328125 1124.4453125 C-357.8555178 1123.14602058 -358.07822309 1121.84672867 -358.30767703 1120.50806427 C-359.21349548 1115.22347406 -360.11934947 1109.93888994 -361.02530706 1104.65432358 C-362.17312921 1097.95888671 -363.32076498 1091.263418 -364.4679451 1084.56787109 C-370.76745415 1047.80088802 -377.08937237 1011.03785259 -383.44921875 974.28125 C-383.6373395 973.19398117 -383.82546025 972.10671234 -384.01928163 970.98649597 C-386.28053062 957.91795021 -388.54313184 944.84963872 -390.80621356 931.78141022 C-394.4355475 910.82341085 -398.06244804 889.86499042 -401.6875 868.90625 C-401.87778518 867.80611824 -402.06807037 866.70598648 -402.26412177 865.5725174 C-411.9283337 809.69625554 -421.52205224 753.80790827 -431.11457825 697.91930389 C-434.17979226 680.06065543 -437.24546716 662.2020862 -440.3125 644.34375 C-440.61510365 642.58178724 -440.61510365 642.58178724 -440.9238205 640.78422928 C-449.50719936 590.80876004 -458.14253778 540.8423325 -466.79037994 490.87798369 C-479.72247393 416.16002356 -492.63045638 341.43793136 -505.48625338 266.70680499 C-505.81766001 264.78033252 -505.81766001 264.78033252 -506.15576172 262.81494141 C-506.37581481 261.53575435 -506.59586791 260.25656729 -506.82258928 258.93861699 C-508.36401313 249.97917519 -509.90719824 241.02003787 -511.45117188 232.06103516 C-513.31744646 221.23168375 -515.18138894 210.40193426 -517.04221028 199.57164443 C-517.99422391 194.03108331 -518.94730269 188.49071092 -519.90319252 182.95081711 C-520.78036352 177.86687493 -521.65445048 172.78241268 -522.52603436 167.69750977 C-522.84306537 165.85118479 -523.16123733 164.00505531 -523.48063183 162.15913773 C-523.91295821 159.65953564 -524.3412024 157.15926813 -524.76838684 154.65878296 C-524.89488957 153.93319636 -525.0213923 153.20760976 -525.15172845 152.46003568 C-525.69952763 149.22890833 -526 146.29324754 -526 143 C-525.03449219 143.144375 -524.06898438 143.28875 -523.07421875 143.4375 C-500.03762094 146.52312597 -474.73644887 147.10623578 -452 142 C-451.20787109 141.82839355 -450.41574219 141.65678711 -449.59960938 141.47998047 C-438.13695857 138.93297764 -427.49621526 135.25854124 -417 130 C-416.32839844 129.66484375 -415.65679687 129.3296875 -414.96484375 128.984375 C-404.83585097 123.83338816 -396.32708046 117.70817583 -388 110 C-387.19046875 109.27167969 -386.3809375 108.54335937 -385.546875 107.79296875 C-372.74004503 95.72499435 -361.83408073 78.59683451 -357.12109375 61.625 C-356.66017334 60.00634033 -356.66017334 60.00634033 -356.18994141 58.35498047 C-355.61932429 56.2544617 -355.10388476 54.13790508 -354.65380859 52.00830078 C-353.79585567 48.81972589 -352.98932789 46.6456238 -351 44 C-346.88266544 41.74777707 -342.66580774 40.57410841 -338.13265991 39.50689697 C-336.04352467 39.01034507 -333.98203018 38.45279382 -331.9152832 37.87060547 C-327.46221044 36.62847167 -322.98600518 35.49161255 -318.5 34.375 C-317.66374084 34.16612152 -316.82748169 33.95724304 -315.96588135 33.74203491 C-216.75728298 9.12611621 -114.17451692 -0.88323907 0 0 Z M-342 74 C-342.23074219 74.53254395 -342.46148437 75.06508789 -342.69921875 75.61376953 C-358.36797581 111.58843062 -379.64826117 138.88037109 -416.70703125 153.94140625 C-426.33688033 157.72084747 -435.74172064 160.49361358 -446 162 C-447.00135986 162.15227051 -447.00135986 162.15227051 -448.02294922 162.30761719 C-466.64648905 165.05542362 -485.40577742 164.79537306 -504 162 C-504.12357694 167.33734667 -503.76989487 172.05594644 -502.6875 177.3125 C-501.48085526 183.35721554 -500.4316586 189.40686635 -499.5 195.5 C-498.598383 201.35609948 -497.61724791 207.18100046 -496.5 213 C-495.24599944 219.53125291 -494.16252271 226.07515137 -493.17773438 232.65234375 C-492.32057347 238.27652231 -491.28298543 243.85883004 -490.22200012 249.44792175 C-488.59852111 258.05014387 -487.14906965 266.68159056 -485.6875 275.3125 C-485.38044691 277.11933011 -485.0732337 278.92613301 -484.76586914 280.73291016 C-484.29692333 283.48964585 -483.82807341 286.24639744 -483.35972595 289.00323486 C-481.65103655 299.06097052 -479.92633861 309.11594412 -478.19995117 319.1706543 C-477.95489793 320.59814154 -477.70986208 322.02563177 -477.46484375 323.453125 C-477.34421066 324.15589066 -477.22357758 324.85865631 -477.09928894 325.5827179 C-476.35586253 329.91664522 -475.61631662 334.25121687 -474.8795929 338.58628845 C-472.02088198 355.407296 -469.09338765 372.21234014 -466.00390625 388.99267578 C-463.81845485 400.88436888 -461.864426 412.79469047 -460.0625 424.75 C-458.76813755 433.26174192 -457.35519929 441.72072301 -455.7109375 450.171875 C-454.90729906 454.49915891 -454.22776897 458.83725421 -453.5625 463.1875 C-452.51153645 470.02888867 -451.3128695 476.8290425 -450 483.625 C-449.82791016 484.51687012 -449.65582031 485.40874023 -449.47851562 486.32763672 C-449.14046676 488.07861415 -448.80241349 489.82959074 -448.46435547 491.58056641 C-446.0662863 504.07523806 -444.10981901 516.63321392 -442.16928101 529.20507812 C-440.81686941 537.9561392 -439.38163908 546.67185435 -437.6796875 555.36328125 C-436.7303057 560.44301952 -435.94245359 565.54506601 -435.17724609 570.65551758 C-434.32025849 576.27863607 -433.28278491 581.85988638 -432.22200012 587.44792175 C-430.59852111 596.05014387 -429.14906965 604.68159056 -427.6875 613.3125 C-427.38044691 615.11933011 -427.0732337 616.92613301 -426.76586914 618.73291016 C-426.29692333 621.48964585 -425.82807341 624.24639744 -425.35972595 627.00323486 C-423.65103655 637.06097052 -421.92633861 647.11594412 -420.19995117 657.1706543 C-419.95489793 658.59814154 -419.70986208 660.02563177 -419.46484375 661.453125 C-419.34421066 662.15589066 -419.22357758 662.85865631 -419.09928894 663.5827179 C-418.35586253 667.91664522 -417.61631662 672.25121687 -416.8795929 676.58628845 C-414.02088198 693.407296 -411.09338765 710.21234014 -408.00390625 726.99267578 C-405.81845485 738.88436888 -403.864426 750.79469047 -402.0625 762.75 C-400.76813755 771.26174192 -399.35519929 779.72072301 -397.7109375 788.171875 C-396.90729906 792.49915891 -396.22776897 796.83725421 -395.5625 801.1875 C-394.51153645 808.02888867 -393.3128695 814.8290425 -392 821.625 C-391.74186523 822.96280518 -391.74186523 822.96280518 -391.47851562 824.32763672 C-391.14046676 826.07861415 -390.80241349 827.82959074 -390.46435547 829.58056641 C-388.0662863 842.07523806 -386.10981901 854.63321392 -384.16928101 867.20507812 C-382.81686941 875.9561392 -381.38163908 884.67185435 -379.6796875 893.36328125 C-378.7303057 898.44301952 -377.94245359 903.54506601 -377.17724609 908.65551758 C-376.32025849 914.27863607 -375.28278491 919.85988638 -374.22200012 925.44792175 C-372.59852111 934.05014387 -371.14906965 942.68159056 -369.6875 951.3125 C-369.38044691 953.11933011 -369.0732337 954.92613301 -368.76586914 956.73291016 C-368.29692333 959.48964585 -367.82807341 962.24639744 -367.35972595 965.00323486 C-365.65103655 975.06097052 -363.92633861 985.11594412 -362.19995117 995.1706543 C-361.95489793 996.59814154 -361.70986208 998.02563177 -361.46484375 999.453125 C-361.34421066 1000.15589066 -361.22357758 1000.85865631 -361.09928894 1001.5827179 C-360.35586253 1005.91664522 -359.61631662 1010.25121687 -358.8795929 1014.58628845 C-356.02088198 1031.407296 -353.09338765 1048.21234014 -350.00390625 1064.99267578 C-347.61358011 1077.99915345 -345.50553308 1091.02911998 -343.58789062 1104.11328125 C-342.71206558 1109.92652637 -341.68026441 1115.6688637 -340.43139648 1121.41455078 C-340.16286362 1122.65407501 -339.89433075 1123.89359924 -339.61766052 1125.17068481 C-339.41383255 1126.10435883 -339.21000458 1127.03803284 -339 1128 C-303.23140009 1128.0703535 -267.46558065 1127.88512892 -231.69802093 1127.64467499 C-226.15282164 1127.60741598 -220.60761841 1127.57079807 -215.06241226 1127.53457451 C-214.25700685 1127.52931251 -213.45160143 1127.52405051 -212.62178979 1127.51862906 C-210.98226976 1127.50791962 -209.34274972 1127.49721136 -207.70322968 1127.48650425 C-192.45606673 1127.3868581 -177.20891683 1127.28532343 -161.96177091 1127.1831094 C-149.13891168 1127.0971926 -136.31604241 1127.01294414 -123.49316406 1126.92993164 C-57.36064588 1126.5015999 8.77111277 1126.06733395 74.90148622 1125.37352872 C113.29729841 1124.97104255 151.69335716 1124.70525702 190.09059215 1124.48259026 C198.97278671 1124.43099806 207.85496628 1124.37699338 216.73714602 1124.32291877 C234.82474991 1124.21284897 252.91236824 1124.10538524 271 1124 C271.09425672 1123.44115868 271.18851343 1122.88231735 271.28562641 1122.30654144 C272.27815615 1116.42429463 273.27348093 1110.54252538 274.27033997 1104.66101074 C274.64068826 1102.47379175 275.01035325 1100.28645694 275.37928772 1098.09899902 C279.28308468 1074.95843538 279.28308468 1074.95843538 281.6875 1063.5 C283.81927479 1053.24372161 285.53202313 1042.94296289 287.12573242 1032.59179688 C288.24624557 1025.38414559 289.50579544 1018.2234399 290.890625 1011.0625 C292.95244222 1000.39879058 294.80639808 989.70448752 296.6328125 978.99829102 C299.7959311 960.47483458 303.07122959 941.9760734 306.5 923.5 C310.03729713 904.4278128 313.39972121 885.32972811 316.68652344 866.21289062 C320.09383896 846.39880244 323.60216475 826.60353733 327.140625 806.8125 C327.9205127 802.44859502 328.69552414 798.08383954 329.46875 793.71875 C331.20963167 783.90386822 332.96747391 774.09642368 334.875 764.3125 C336.81634517 754.32048688 338.49393067 744.28618394 340.1875 734.25 C342.78337822 718.870062 345.52941924 703.52312693 348.375 688.1875 C352.04049576 668.43242369 355.52693368 648.65058099 358.90576172 628.84448242 C360.68403862 618.44385485 362.53623309 608.06573267 364.53924561 597.70597839 C366.53821207 587.3078101 368.26312891 576.86377126 370.00268555 566.41967773 C371.57314808 557.00995349 373.23941374 547.66697514 375.30102539 538.34985352 C376.57365966 532.25072154 377.48821275 526.0937688 378.4375 519.9375 C379.7770527 511.26423451 381.23188115 502.6359212 382.8984375 494.01953125 C384.95785417 483.37019204 386.80884722 472.69013096 388.6328125 461.99829102 C391.7959311 443.47483458 395.07122959 424.9760734 398.5 406.5 C402.03729713 387.4278128 405.39972121 368.32972811 408.68652344 349.21289062 C412.09383896 329.39880244 415.60216475 309.60353733 419.140625 289.8125 C419.9205127 285.44859502 420.69552414 281.08383954 421.46875 276.71875 C423.20963077 266.90387327 424.96721991 257.09637221 426.875 247.3125 C429.2777808 234.95983915 431.32038805 222.54205806 433.41772461 210.13476562 C435.16216481 199.82716472 436.93450686 189.52791408 438.93359375 179.26586914 C439.72135119 175.10860235 440.16972202 171.25662829 440 167 C436.20411051 166.93340545 432.71590544 166.88405645 428.9609375 167.4921875 C391.83589101 172.25180884 354.37877578 162.11991491 324.8203125 139.30078125 C321.15928935 136.3141571 317.64639895 133.19320573 314.17578125 129.98828125 C312.42998626 128.39293179 310.66711898 126.90064268 308.8125 125.4375 C294.99609469 113.46328207 283.07458125 95.9630209 275.16796875 79.57421875 C273.60505361 77.46768095 272.5622106 77.39811013 270 77 C267.89140321 77.29020763 267.89140321 77.29020763 265.7109375 77.96875 C264.86692383 78.20634033 264.02291016 78.44393066 263.15332031 78.6887207 C262.23647461 78.95644287 261.31962891 79.22416504 260.375 79.5 C258.3568453 80.06667152 256.33861314 80.63306723 254.3203125 81.19921875 C251.24618976 82.07328959 248.17298231 82.95044747 245.10058594 83.83056641 C189.21091965 99.7458506 131.15206778 108.56650954 73.3125 113.3125 C72.33416199 113.39381165 71.35582397 113.47512329 70.34783936 113.55889893 C41.94098255 115.88418189 13.54550274 116.20740444 -14.9375 116.1875 C-16.22407627 116.18709969 -16.22407627 116.18709969 -17.53664398 116.18669128 C-83.95992359 116.16079459 -149.90024918 111.1437673 -215.51074219 100.56005859 C-218.61183362 100.06230434 -221.71501477 99.58389578 -224.8203125 99.11328125 C-261.71459201 93.40146381 -299.03381526 85.61965354 -334.79760742 74.85717773 C-338.09147453 73.82762299 -338.09147453 73.82762299 -342 74 Z " fill="#233F99" transform="translate(526,0)"/>
<path d="M0 0 C2.75187312 1.27604159 4.94516965 2.64472937 7.21484375 4.65234375 C7.81200195 5.17602539 8.40916016 5.69970703 9.02441406 6.23925781 C9.65573242 6.79967773 10.28705078 7.36009766 10.9375 7.9375 C12.28461885 9.11910254 13.63228473 10.30008169 14.98046875 11.48046875 C15.65513184 12.07263184 16.32979492 12.66479492 17.02490234 13.27490234 C19.90973732 15.7945864 22.82441101 18.27783966 25.75 20.75 C26.28294678 21.20044678 26.81589355 21.65089355 27.36499023 22.11499023 C31.60489991 25.68746447 35.89661873 29.19405757 40.1953125 32.6953125 C46.07911361 37.53019085 51.86347943 42.48419998 57.66601562 47.41601562 C63.22068034 52.1351961 68.78059925 56.84075049 74.4375 61.4375 C79.30049424 65.39443418 84.05700203 69.46435942 88.80615234 73.55615234 C93.22031766 77.35163367 97.70333198 81.05277913 102.22265625 84.72265625 C105.90759143 87.74419944 109.53568321 90.83035951 113.16650391 93.91650391 C116.55973475 96.79557843 119.9827672 99.63211492 123.4375 102.4375 C127.68392946 105.89274609 131.85284488 109.42710949 136 113 C145.15767062 120.88546132 154.54581479 128.47356622 164 136 C170.52696077 131.2310172 176.76542637 126.14244832 183 121 C184.707755 119.60345916 186.4160935 118.20763156 188.125 116.8125 C195.02317049 111.16854233 201.89991275 105.49857822 208.77832031 99.83056641 C213.05490022 96.30685254 217.33273337 92.78466033 221.61035156 89.26220703 C225.22764791 86.28340438 228.84460131 83.30418701 232.4609375 80.32421875 C239.32681051 74.6671262 246.19738185 69.01618794 253.0859375 63.38671875 C258.99411667 58.5477141 264.88460244 53.68716472 270.77832031 48.83056641 C274.3516205 45.88632412 277.92584428 42.9432036 281.5 40 C282.91667137 38.83333904 284.33333803 37.66667237 285.75 36.5 C288.58333333 34.16666667 291.41666667 31.83333333 294.25 29.5 C295.3033252 28.6325415 295.3033252 28.6325415 296.37792969 27.74755859 C297.78479309 26.58898424 299.19169371 25.43045508 300.59863281 24.27197266 C304.29060672 21.23187627 307.98179844 18.19083672 311.671875 15.1484375 C312.82139648 14.20097656 312.82139648 14.20097656 313.99414062 13.234375 C315.45662037 12.02893715 316.91887402 10.82322491 318.38085938 9.6171875 C319.37569336 8.79734375 319.37569336 8.79734375 320.390625 7.9609375 C320.96844727 7.48446777 321.54626953 7.00799805 322.14160156 6.51708984 C322.75487305 6.0164502 323.36814453 5.51581055 324 5 C325.1068534 3.9782922 325.1068534 3.9782922 326.23606747 2.93594384 C329.50814859 0.64407701 331.12702354 0.50214959 335.08131886 0.50780869 C336.9250344 0.49586239 336.9250344 0.49586239 338.80599672 0.48367476 C340.16687622 0.49508617 341.52775266 0.50686854 342.8886261 0.51898193 C344.33662457 0.51723757 345.78462181 0.51373514 347.23261231 0.50862527 C351.212028 0.4996748 355.19101363 0.51568963 359.17037451 0.53573751 C363.46139683 0.55299722 367.75239452 0.54716686 372.04344177 0.54412842 C379.47809415 0.54203012 386.9126062 0.55458947 394.34722328 0.57707977 C405.09643278 0.60957583 415.84557437 0.62000434 426.59482767 0.62503174 C444.03436695 0.63378815 461.47383142 0.66041312 478.91333008 0.69824219 C495.85505804 0.73495331 512.79676569 0.76326948 529.73852539 0.78027344 C530.78266023 0.78132433 531.82679506 0.78237523 532.90257034 0.78345796 C538.14064198 0.78867808 543.37871377 0.79373292 548.61678565 0.79870558 C592.07792353 0.8401784 635.53892308 0.91392207 679 1 C679 25.75 679 50.5 679 76 C669.07139893 75.96745117 659.14279785 75.93490234 648.91333008 75.90136719 C617.12344066 75.80561795 585.33372794 75.76897447 553.54370009 75.76939832 C548.60343344 75.76941012 543.66316697 75.7688997 538.72290039 75.76806641 C537.73940755 75.7679093 536.75591471 75.76775219 535.74261906 75.76759031 C519.83063937 75.76380386 503.9190499 75.7177393 488.00720171 75.65597185 C471.67270736 75.59350779 455.33862217 75.57665944 439.00402564 75.60190511 C428.92930191 75.61604573 418.85593631 75.59486707 408.78141858 75.52809784 C401.86715507 75.48568635 394.9537804 75.48769812 388.0394868 75.52415326 C384.05326498 75.54387353 380.06953951 75.54447805 376.08355713 75.49215889 C358.21984629 74.47045525 358.21984629 74.47045525 342.46149415 81.16549134 C340.0279488 83.61342649 338.0489636 86.21880031 336 89 C334.30669485 90.60129363 332.58266509 92.1716045 330.8125 93.6875 C330.01457031 94.40292969 329.21664063 95.11835938 328.39453125 95.85546875 C327.60433594 96.56316406 326.81414062 97.27085937 326 98 C324.332943 99.49956619 322.66628005 100.99957053 321 102.5 C318.52497766 104.72829114 316.04928246 106.9557884 313.5703125 109.1796875 C308.97969436 113.30097727 304.41550032 117.44870713 299.875 121.625 C296.63782784 124.60218281 293.38862271 127.55952856 290.0625 130.4375 C286.47041409 133.54964124 282.98448008 136.76872086 279.5 140 C275.41429121 143.78881936 271.29606727 147.52171864 267.08203125 151.16796875 C263.86508207 153.99864261 260.7202932 156.90767016 257.56665039 159.80834961 C252.74396118 164.24236939 247.87650331 168.62525909 243 173 C241.33307353 174.49971128 239.66640851 175.99971321 238 177.5 C235.52497766 179.72829114 233.04928246 181.9557884 230.5703125 184.1796875 C225.46242475 188.76536308 220.39221727 193.38927204 215.34057617 198.03662109 C211.81686746 201.27084341 208.24695928 204.44347589 204.62109375 207.5625 C204.08613281 208.036875 203.55117188 208.51125 203 209 C202.47938197 209.42386099 201.95876394 209.84772198 201.42236961 210.28442724 C199.52331555 212.5749468 199.62361682 213.93218667 199.62099248 216.88666409 C199.61281718 217.90253168 199.60464189 218.91839927 199.59621885 219.96505073 C199.6056339 221.64741795 199.6056339 221.64741795 199.61523914 223.36377239 C199.61008924 224.555849 199.60493933 225.74792561 199.59963337 226.97612575 C199.58830917 230.30558857 199.59052126 233.63455896 199.59826221 236.9640004 C199.60338635 240.57824735 199.59118597 244.19244111 199.58113068 247.80667192 C199.5658997 254.14776736 199.56184751 260.48879464 199.56500816 266.82990646 C199.56965785 276.25896291 199.55720497 285.68794182 199.54117843 295.11698301 C199.5147101 310.97636105 199.5022151 326.83572162 199.49761391 342.69511986 C199.49301106 358.40367972 199.48224045 374.11221529 199.46318626 389.82076454 C199.46200614 390.79654646 199.46082601 391.77232837 199.45961012 392.77767943 C199.45358491 397.73294429 199.44744906 402.688209 199.44127061 407.64347366 C199.39767886 442.76483213 199.36798579 477.88619003 199.34643555 513.00756836 C199.32546474 547.13290276 199.29821755 581.25822268 199.26245117 615.38354492 C199.26135169 616.43496571 199.26025222 617.48638649 199.25911942 618.56966851 C199.24807133 629.12822332 199.2368954 639.68677799 199.2256258 650.24533257 C199.20267011 671.7553766 199.18056781 693.26542147 199.15898132 714.77546692 C199.1579877 715.76451925 199.15699409 716.75357158 199.15597036 717.7725952 C199.10461513 768.96724542 199.06593076 820.16190423 199.03013611 871.35656738 C199.02963237 872.07691084 199.02912863 872.7972543 199.02860962 873.53942635 C199.01873477 887.69295068 199.00942097 901.84647535 199 916 C173.26 916 147.52 916 121 916 C121.01411926 907.16707687 121.02823853 898.33415375 121.04278564 889.23356628 C121.05195405 883.24072792 121.06106724 877.2478896 121.06983948 871.25505066 C121.0709794 870.47655929 121.07211932 869.69806792 121.07329378 868.8959859 C121.14855174 817.34939408 121.2095347 765.80282939 121.22210693 714.25617981 C121.22235388 713.26101399 121.22260083 712.26584818 121.22285526 711.24052583 C121.2281328 689.61330179 121.23074184 667.9860782 121.23060168 646.35885353 C121.2305492 635.75298891 121.23108643 625.14712435 121.23193359 614.54125977 C121.23200786 613.48584433 121.23208213 612.4304289 121.23215864 611.34303118 C121.2348426 577.12905882 121.27647373 542.91526845 121.3382853 508.7013561 C121.401595 473.54440685 121.42564595 438.38764435 121.40024378 403.23064191 C121.39667489 398.265871 121.39355516 393.30109989 121.39070892 388.33632851 C121.39013485 387.35918277 121.38956077 386.38203703 121.3889693 385.37528082 C121.38088072 369.64081337 121.41422184 353.90669287 121.46302706 338.17231038 C121.51120058 322.35688557 121.51579627 306.54192476 121.47584674 290.72647276 C121.4534322 281.32788858 121.46449296 271.93072873 121.5234086 262.53229507 C121.55947604 256.25341599 121.55197871 249.97556189 121.50916221 243.69672781 C121.48600772 240.11876007 121.48169667 236.54354708 121.53055301 232.96577623 C122.44114613 218.21858504 122.44114613 218.21858504 117.38059568 204.96998465 C114.58514927 202.10670843 111.42205927 200.06765052 108 198 C106.53545115 196.699601 105.09599539 195.36912139 103.70703125 193.98828125 C102.74591431 193.08227173 102.74591431 193.08227173 101.76538086 192.15795898 C101.12093018 191.54895752 100.47647949 190.93995605 99.8125 190.3125 C98.35157779 188.93487961 96.89063983 187.55727593 95.4296875 186.1796875 C94.33092285 185.14279785 94.33092285 185.14279785 93.20996094 184.08496094 C89.62174765 180.69970448 86.0297411 177.31848135 82.4375 173.9375 C81.7347998 173.2760498 81.03209961 172.61459961 80.30810547 171.93310547 C73.54199206 165.56582352 66.76404233 159.211209 59.98388672 152.85888672 C55.987574 149.11437219 51.99270731 145.36831494 47.99755859 141.62255859 C44.67722409 138.50959311 41.35656208 135.39697867 38.03515625 132.28515625 C30.46713862 125.19386414 22.90843249 118.09282759 15.35791016 110.98291016 C7.91624807 103.97689076 0.4587843 96.98778065 -7 90 C-9.64603853 87.52105221 -12.29186053 85.04187368 -14.9375 82.5625 C-15.59065186 81.95059814 -16.24380371 81.33869629 -16.91674805 80.70825195 C-20.42813646 77.41705103 -23.93422675 74.12038874 -27.43359375 70.81640625 C-34.87896177 63.78864962 -42.3303614 56.78395552 -50 50 C-47.10615637 43.25277512 -40.66556627 38.37314159 -35.1875 33.6875 C-31.61101185 30.62499817 -28.30610201 27.34719713 -25 24 C-21.15864716 20.11101725 -17.25724457 16.40903767 -13.08984375 12.8671875 C-8.5273988 8.79083482 -4.28915038 4.36011058 0 0 Z " fill="#31368D" transform="translate(116,183)"/>
<path d="M0 0 C1.60766235 0.10535065 1.60766235 0.10535065 3.24780273 0.21282959 C19.84581369 1.30963402 36.42683405 2.57743374 53 4 C53.74364807 4.06296265 54.48729614 4.12592529 55.253479 4.1907959 C149.49045134 12.21351509 149.49045134 12.21351509 169.6640625 32.2109375 C171.89254357 35.19527765 172.26743844 37.32272147 172 41 C169.24765586 46.21569214 165.96880134 48.62693341 160.75 51.0625 C160.04762207 51.40047607 159.34524414 51.73845215 158.62158203 52.08666992 C146.95730251 57.52904761 134.61921737 60.63204446 122 63 C121.18756836 63.1532373 120.37513672 63.30647461 119.53808594 63.46435547 C113.9186638 64.51735505 108.29321392 65.53278903 102.66308594 66.52685547 C100.29695631 66.94724044 97.93352381 67.37999629 95.5703125 67.81640625 C81.80523478 70.30138946 67.91220998 71.62889559 54 73 C52.72705078 73.12906738 51.45410156 73.25813477 50.14257812 73.39111328 C33.84213502 75.03459874 17.55045968 76.29595206 1.1875 77.125 C0.43020599 77.16352081 -0.32708801 77.20204163 -1.10733032 77.24172974 C-5.85283004 77.47890458 -10.59907389 77.68878659 -15.34640503 77.88571167 C-18.07794421 78.003357 -20.80847563 78.13677551 -23.53930664 78.26977539 C-46.52588957 79.31050015 -69.53483349 79.1873345 -92.53979492 79.18530273 C-97.36860926 79.18522172 -102.19732824 79.19213936 -107.02612305 79.20581055 C-134.71098114 79.28299907 -162.27441006 79.0212374 -189.9080658 77.25471497 C-195.48802314 76.90066403 -201.07154772 76.61710342 -206.65522766 76.32894897 C-244.61202137 74.28222984 -282.87033327 70.33394889 -320 62 C-320.82741699 61.82001465 -321.65483398 61.6400293 -322.50732422 61.45458984 C-352.68422816 54.81898022 -352.68422816 54.81898022 -363 44 C-364.57455739 40.85088521 -364.34799118 38.47991184 -364 35 C-356.48417759 24.34220395 -343.06996175 21.05306642 -331 18 C-330.25911133 17.78327637 -329.51822266 17.56655273 -328.75488281 17.34326172 C-319.99813337 14.80964221 -311.09279575 13.19556113 -302.125 11.625 C-301.26396667 11.47381714 -300.40293335 11.32263428 -299.51580811 11.16687012 C-265.17845768 5.20040383 -230.4056278 2.16547189 -195.63250732 0.15429688 C-193.06462795 0.00378798 -190.4974187 -0.15544513 -187.93017578 -0.31640625 C-125.75216105 -4.13501035 -62.16031874 -4.1153468 0 0 Z " fill="#FEFEFE" transform="translate(593,22)"/>
<path d="M0 0 C36.25546703 4.26534906 72.50683493 15.05549028 96.29345703 44.60693359 C115.93229956 70.28493258 121.19955849 103.79840783 117.28125 135.37670898 C113.07863685 163.62794012 98.64664408 190.11485053 75.76953125 207.5390625 C72.5721566 209.80565452 69.32661833 211.92826261 66 214 C64.38544922 215.03060547 64.38544922 215.03060547 62.73828125 216.08203125 C53.9668672 221.4100795 44.83205646 224.95766048 35.13720703 228.265625 C33.31107139 228.89311141 31.49601956 229.55269952 29.68359375 230.21875 C20.2362912 233.61206684 10.05952651 236 0 236 C0 158.12 0 80.24 0 0 Z " fill="#FEFEFE" transform="translate(554,542)"/>
<path d="M0 0 C1.42708282 0.01450195 1.42708282 0.01450195 2.88299561 0.02929688 C74.73790345 0.77177542 147.06841375 5.5719713 217 23 C218.07282227 23.26216309 219.14564453 23.52432617 220.25097656 23.79443359 C234.48140809 27.302615 248.40621258 31.64471943 262.3125 36.25 C263.10892914 36.512435 263.90535828 36.77487 264.72592163 37.04525757 C267.00346602 37.79871782 269.27763341 38.56151498 271.55078125 39.328125 C272.22984528 39.55291031 272.9089093 39.77769562 273.60855103 40.0092926 C282.62677815 43.08885924 282.62677815 43.08885924 285.3269043 46.84667969 C285.65601807 47.53149414 285.98513184 48.21630859 286.32421875 48.921875 C286.70771484 49.69257324 287.09121094 50.46327148 287.48632812 51.25732422 C287.88271484 52.07990723 288.27910156 52.90249023 288.6875 53.75 C295.65898686 67.56979331 304.27213497 79.98553376 314 92 C314.46132324 92.57105469 314.92264648 93.14210938 315.39794922 93.73046875 C338.85049931 122.51206087 370.58269883 144.59794231 408.26171875 148.46484375 C422.48796928 149.68508373 436.82590692 148.62852304 450.5546875 144.5859375 C453.12620447 143.96975931 455.36623996 143.95890743 458 144 C456.57073295 154.46274314 454.88225191 164.86389424 453.09619141 175.27026367 C452.80554849 176.97215929 452.51507154 178.67408325 452.2247448 180.37603283 C451.43517401 185.00171031 450.6432344 189.6269794 449.85085106 194.25217581 C449.00106917 199.2148131 448.15345333 204.17782042 447.30554199 209.14077759 C445.65627222 218.79201939 444.0048889 228.44289839 442.35274291 238.0936482 C441.00146381 245.98721752 439.65105991 253.88093616 438.3012085 261.77474976 C427.14575436 327.01000049 415.95967612 392.23996615 404.74658203 457.46533203 C403.59404376 464.16959089 402.44153613 470.87385502 401.2890625 477.578125 C401.14512888 478.41541625 401.00119527 479.25270751 400.85290003 480.11537123 C392.91113716 526.3148748 384.99180732 572.518224 377.07262707 618.72160292 C376.3088872 623.17751576 375.54512792 627.63342527 374.78136861 632.08933479 C371.50587542 651.1991667 368.23049106 670.30901726 364.95529175 689.41889954 C359.62712464 720.50724755 354.29824851 751.59547395 348.96875 782.68359375 C348.78342988 783.76460704 348.59810976 784.84562033 348.40717387 785.95939159 C346.72390662 795.77825513 345.04063099 805.59711722 343.35734463 815.41597748 C340.75126516 830.6176389 338.14526439 845.81931381 335.53930664 861.02099609 C329.03342561 898.97256506 322.52745996 936.92411951 316.02073383 974.87554359 C315.61856388 977.22125878 315.21639402 979.56697399 314.81422424 981.91268921 C314.61504153 983.07445211 314.41585881 984.236215 314.21064025 985.43318284 C312.80936253 993.60637724 311.40813925 1001.77958098 310.00694275 1009.95278931 C309.21402096 1014.57790141 308.42109751 1019.20301322 307.62817383 1023.828125 C307.43285486 1024.96742234 307.23753588 1026.10671968 307.03629816 1027.28054118 C304.7149528 1040.82090542 302.39331946 1054.36122022 300.0712263 1067.90145624 C298.04985646 1079.68817065 296.02870945 1091.47492325 294.0078125 1103.26171875 C293.83181621 1104.28819629 293.65581992 1105.31467383 293.4744904 1106.37225676 C289.06849005 1132.07038392 284.66971667 1157.76972207 280.28751183 1183.47191811 C279.57295327 1187.66275077 278.85792344 1191.85350293 278.14277649 1196.04423523 C277.69551978 1198.66531264 277.24827307 1201.28639175 276.80102539 1203.9074707 C276.58848271 1205.15300941 276.37594004 1206.39854811 276.15695667 1207.68183041 C274.95600341 1214.72154343 273.75794892 1221.76174136 272.56238174 1228.80237103 C271.86525782 1232.9042723 271.16567313 1237.00575082 270.4653511 1241.10710716 C270.15219166 1242.94452786 269.84015081 1244.78213963 269.52933884 1246.61995888 C269.11788577 1249.05247716 268.70264779 1251.48431796 268.28637695 1253.91601562 C268.16876983 1254.61739749 268.0511627 1255.31877935 267.92999172 1256.04141521 C267.11411829 1260.77176342 267.11411829 1260.77176342 266 1263 C219.94777005 1263.01722173 173.89553981 1263.03312756 127.8433075 1263.04234314 C126.8111492 1263.04255023 126.8111492 1263.04255023 125.75813922 1263.04276149 C110.78236874 1263.04575854 95.80659823 1263.04852813 80.83082767 1263.05106533 C73.48039878 1263.05231202 66.1299699 1263.05360866 58.77954102 1263.05493164 C58.04831602 1263.0550624 57.31709102 1263.05519316 56.56370769 1263.05532788 C33.11577306 1263.05954408 9.66784093 1263.0670202 -13.78009221 1263.07629722 C-37.99644931 1263.08586023 -62.21280504 1263.09191489 -86.429164 1263.09391499 C-89.89636235 1263.0942029 -93.3635607 1263.09452853 -96.83075905 1263.09487724 C-97.51275826 1263.09494467 -98.19475748 1263.09501209 -98.89742334 1263.09508156 C-108.96284914 1263.09616588 -119.02827025 1263.10012321 -129.09369469 1263.10573006 C-197.06889986 1263.14252216 -265.02964078 1262.83552359 -333 1262 C-334.58327555 1257.39867633 -335.66869536 1252.8926319 -336.47212219 1248.10070801 C-336.60693125 1247.31990922 -336.74174031 1246.53911044 -336.88063449 1245.73465109 C-337.33155456 1243.11616498 -337.77573275 1240.49658052 -338.2199707 1237.87695312 C-338.54490163 1235.98189388 -338.87025381 1234.08690682 -339.19599152 1232.19198608 C-339.90286041 1228.07436807 -340.60670652 1223.95624843 -341.30826759 1219.83772278 C-342.44549785 1213.16165167 -343.58928802 1206.48671389 -344.73381042 1199.81188965 C-346.39192098 1190.13776796 -348.04686336 1180.46310882 -349.69970703 1170.78808594 C-352.33899986 1155.33962438 -354.98506527 1139.89232703 -357.6328125 1124.4453125 C-357.8555178 1123.14602058 -358.07822309 1121.84672867 -358.30767703 1120.50806427 C-359.21349548 1115.22347406 -360.11934947 1109.93888994 -361.02530706 1104.65432358 C-362.17312921 1097.95888671 -363.32076498 1091.263418 -364.4679451 1084.56787109 C-370.76745415 1047.80088802 -377.08937237 1011.03785259 -383.44921875 974.28125 C-383.6373395 973.19398117 -383.82546025 972.10671234 -384.01928163 970.98649597 C-386.28053062 957.91795021 -388.54313184 944.84963872 -390.80621356 931.78141022 C-394.4355475 910.82341085 -398.06244804 889.86499042 -401.6875 868.90625 C-401.87778518 867.80611824 -402.06807037 866.70598648 -402.26412177 865.5725174 C-411.9283337 809.69625554 -421.52205224 753.80790827 -431.11457825 697.91930389 C-434.17979226 680.06065543 -437.24546716 662.2020862 -440.3125 644.34375 C-440.61510365 642.58178724 -440.61510365 642.58178724 -440.9238205 640.78422928 C-449.50719936 590.80876004 -458.14253778 540.8423325 -466.79037994 490.87798369 C-479.72247393 416.16002356 -492.63045638 341.43793136 -505.48625338 266.70680499 C-505.81766001 264.78033252 -505.81766001 264.78033252 -506.15576172 262.81494141 C-506.37581481 261.53575435 -506.59586791 260.25656729 -506.82258928 258.93861699 C-508.36401313 249.97917519 -509.90719824 241.02003787 -511.45117188 232.06103516 C-513.31744646 221.23168375 -515.18138894 210.40193426 -517.04221028 199.57164443 C-517.99422391 194.03108331 -518.94730269 188.49071092 -519.90319252 182.95081711 C-520.78036352 177.86687493 -521.65445048 172.78241268 -522.52603436 167.69750977 C-522.84306537 165.85118479 -523.16123733 164.00505531 -523.48063183 162.15913773 C-523.91295821 159.65953564 -524.3412024 157.15926813 -524.76838684 154.65878296 C-524.89488957 153.93319636 -525.0213923 153.20760976 -525.15172845 152.46003568 C-525.69952763 149.22890833 -526 146.29324754 -526 143 C-525.03449219 143.144375 -524.06898438 143.28875 -523.07421875 143.4375 C-500.03762094 146.52312597 -474.73644887 147.10623578 -452 142 C-451.20787109 141.82839355 -450.41574219 141.65678711 -449.59960938 141.47998047 C-438.13695857 138.93297764 -427.49621526 135.25854124 -417 130 C-416.32839844 129.66484375 -415.65679687 129.3296875 -414.96484375 128.984375 C-404.83585097 123.83338816 -396.32708046 117.70817583 -388 110 C-387.19046875 109.27167969 -386.3809375 108.54335937 -385.546875 107.79296875 C-372.74004503 95.72499435 -361.83408073 78.59683451 -357.12109375 61.625 C-356.66017334 60.00634033 -356.66017334 60.00634033 -356.18994141 58.35498047 C-355.61932429 56.2544617 -355.10388476 54.13790508 -354.65380859 52.00830078 C-353.79585567 48.81972589 -352.98932789 46.6456238 -351 44 C-346.88266544 41.74777707 -342.66580774 40.57410841 -338.13265991 39.50689697 C-336.04352467 39.01034507 -333.98203018 38.45279382 -331.9152832 37.87060547 C-327.46221044 36.62847167 -322.98600518 35.49161255 -318.5 34.375 C-317.66374084 34.16612152 -316.82748169 33.95724304 -315.96588135 33.74203491 C-216.75728298 9.12611621 -114.17451692 -0.88323907 0 0 Z M-103.94744873 6.87042236 C-105.84364376 6.99012922 -107.7404096 7.1007003 -109.63720703 7.21044922 C-116.72139412 7.62187016 -123.78683889 8.16347431 -130.8538208 8.80529785 C-132.39907557 8.94548392 -133.9444617 9.08422482 -135.4899292 9.2220459 C-201.71108224 15.13376957 -266.93543517 25.47306711 -331.25 42.4375 C-333.13392456 42.9325 -333.13392456 42.9325 -335.0559082 43.4375 C-336.19761475 43.74558594 -337.33932129 44.05367187 -338.515625 44.37109375 C-339.50852539 44.63849365 -340.50142578 44.90589355 -341.52441406 45.18139648 C-344.20895778 45.94760538 -344.20895778 45.94760538 -347 48 C-347.92098169 49.83768812 -347.92098169 49.83768812 -348.54296875 52.0078125 C-348.80762939 52.8215332 -349.07229004 53.63525391 -349.3449707 54.47363281 C-349.62300537 55.34858398 -349.90104004 56.22353516 -350.1875 57.125 C-353.35405991 66.5731291 -357.14048475 75.30713459 -362 84 C-362.54648193 84.9892749 -362.54648193 84.9892749 -363.10400391 85.99853516 C-379.92465431 115.96869101 -407.88663142 134.44729543 -440.33984375 144.05859375 C-455.73353157 148.0179094 -470.63461052 150.17856311 -486.52685547 150.13037109 C-488.60001117 150.12506397 -490.67294507 150.13031558 -492.74609375 150.13671875 C-501.870716 150.14078028 -510.90300047 149.72073322 -520 149 C-519.4480953 157.33546495 -518.3676272 165.45077857 -516.8828125 173.66796875 C-516.56354294 175.47507072 -516.56354294 175.47507072 -516.23782349 177.31867981 C-515.7782058 179.91788248 -515.3167801 182.51668283 -514.85217285 185.11499023 C-513.72475627 191.42205763 -512.61407058 197.73208204 -511.50271606 204.041996 C-511.24470729 205.50659608 -510.98650678 206.9711624 -510.7281189 208.43569565 C-507.93827453 224.25144663 -505.26044492 240.08542133 -502.59905624 255.92321014 C-499.46417194 274.57492041 -496.29199166 293.21698406 -492.90026855 311.82400513 C-490.28238085 326.2014897 -487.87279065 340.61062241 -485.48892212 355.02856445 C-483.09075136 369.5294126 -480.62514532 384.01582003 -478.07174683 398.4901123 C-475.68070771 412.04686737 -473.35925829 425.61447111 -471.0625 439.1875 C-468.27070349 455.68320477 -465.38481497 472.15978305 -462.43289185 488.62753296 C-459.87046632 502.93722036 -457.4331666 517.2637902 -455.07046509 531.60769653 C-452.86086971 545.00825277 -450.52772039 558.38280239 -448.125 571.75 C-445.10013607 588.58348696 -442.22993275 605.43894135 -439.4375 622.3125 C-436.89005291 637.6977326 -434.3283574 653.07880963 -431.625 668.4375 C-431.48919525 669.2093866 -431.3533905 669.98127319 -431.21347046 670.77655029 C-430.48170147 674.93327182 -429.74837355 679.08971712 -429.01464844 683.24609375 C-427.03426372 694.4700833 -425.06661579 705.69631186 -423.10242462 716.92314529 C-422.86768693 718.26483635 -422.63290004 719.60651881 -422.39806366 720.9481926 C-418.48339989 743.31568435 -414.66691764 765.69876389 -410.8980217 788.09123993 C-407.99259685 805.35299127 -405.03934489 822.60300634 -401.90026855 839.82400513 C-399.28238085 854.2014897 -396.87279065 868.61062241 -394.48892212 883.02856445 C-392.09075136 897.5294126 -389.62514532 912.01582003 -387.07174683 926.4901123 C-384.68070771 940.04686737 -382.35925829 953.61447111 -380.0625 967.1875 C-377.27138606 983.6791717 -374.38697392 1000.1518751 -371.43490601 1016.615448 C-368.82372752 1031.19223291 -366.34508369 1045.78728141 -363.9387207 1060.39916992 C-362.04454466 1071.89135929 -360.05824282 1083.36000215 -357.9375 1094.8125 C-355.82804018 1106.20684359 -353.89036942 1117.61964371 -352.0625 1129.0625 C-350.01896697 1141.85237423 -347.87650396 1154.6200564 -345.625 1167.375 C-342.48675294 1185.15575617 -339.43889368 1202.9508851 -336.42507935 1220.75314331 C-334.31663561 1233.17519391 -332.15894235 1245.5860815 -330 1258 C-134.64 1258.33 60.72 1258.66 262 1259 C263.65218002 1251.60334759 263.65218002 1251.60334759 265.03393555 1244.18115234 C265.21167511 1243.12494186 265.38941467 1242.06873138 265.57254028 1240.98051453 C265.85180862 1239.3001989 265.85180862 1239.3001989 266.13671875 1237.5859375 C266.54955225 1235.129149 266.96239439 1232.67236194 267.37524414 1230.21557617 C267.70144652 1228.26611435 268.0276484 1226.31665244 268.35380936 1224.36718369 C269.36834339 1218.31026185 270.3906445 1212.25464489 271.4140625 1206.19921875 C271.52663706 1205.53291002 271.63921162 1204.8666013 271.75519753 1204.18010139 C273.61715252 1193.16862666 275.55623234 1182.17346617 277.5625 1171.1875 C280.57938771 1154.65173266 283.34010788 1138.07678639 286.07925415 1121.49298096 C288.66284259 1105.86119683 291.34671357 1090.25369299 294.18652344 1074.66650391 C296.30006278 1063.05641533 298.24981391 1051.43327324 300.08691406 1039.77563477 C301.88360329 1028.48059456 303.91255808 1017.23262292 305.95800781 1005.98046875 C307.92095297 995.16955882 309.78977224 984.35424553 311.5 973.5 C313.47600747 960.95893923 315.68746294 948.47088618 317.95800781 935.98046875 C319.92095297 925.16955882 321.78977224 914.35424553 323.5 903.5 C325.47600747 890.95893923 327.68746294 878.47088618 329.95800781 865.98046875 C331.92095297 855.16955882 333.78977224 844.35424553 335.5 833.5 C337.34312807 821.8022805 339.38246755 810.15059322 341.5 798.5 C343.63179503 786.76580297 345.69230941 775.02899989 347.5625 763.25 C349.1925541 752.98970772 350.866003 742.73903257 352.625 732.5 C352.74355347 731.80980774 352.86210693 731.11961548 352.98425293 730.4085083 C354.80698432 719.81316845 356.65877736 709.22290338 358.51171875 698.6328125 C358.73653427 697.34791428 358.96134979 696.06301605 359.19297791 694.73918152 C359.30710179 694.08694264 359.42122568 693.43470377 359.53880787 692.76270008 C360.01025215 690.06828924 360.48167449 687.37387456 360.95306778 684.6794548 C361.19324496 683.306642 361.43343616 681.93383164 361.6736412 680.56102371 C365.34789586 659.5602707 368.96565767 638.55071666 372.52148438 617.52954102 C375.59363699 599.36957153 378.69806113 581.21525336 381.8125 563.0625 C382.06778301 561.57437193 382.32306255 560.08624327 382.57833862 558.59811401 C383.60973069 552.58578148 384.64124823 546.57347049 385.67301941 540.561203 C387.45360076 530.18550713 389.2331085 519.80962769 391.01171875 509.43359375 C391.13514019 508.71359444 391.25856163 507.99359512 391.38572311 507.25177765 C392.50662653 500.7127684 393.62744905 494.17374529 394.74816895 487.63470459 C395.49743619 483.26297311 396.24674641 478.891249 396.99609375 474.51953125 C397.18156202 473.43748539 397.18156202 473.43748539 397.37077713 472.33358002 C399.13054774 462.06723934 400.89237209 451.80125273 402.65542221 441.53547478 C403.66588945 435.65135182 404.67587281 429.7671458 405.68571472 423.8829155 C405.93655641 422.42133573 406.18742102 420.95975989 406.43830872 419.49818802 C409.28507118 402.91364531 412.11998052 386.32722312 414.91796875 369.734375 C415.09577063 368.68011322 415.09577063 368.68011322 415.27716446 367.60455322 C415.86841039 364.09861264 416.45949911 360.59264556 417.05053711 357.08666992 C417.16612976 356.40099945 417.28172241 355.71532898 417.40081787 355.00888062 C417.63346806 353.6287782 417.86609342 352.2486716 418.09869385 350.86856079 C421.15357319 332.74514419 424.28011329 314.63696487 427.53771973 296.54879761 C430.73504196 278.77185855 433.69217535 260.95710156 436.63873291 243.13711548 C439.90594708 223.39051506 443.30894122 203.673123 446.86123657 183.97589111 C448.1792314 176.65845288 449.47747362 169.3380301 450.72265625 162.0078125 C450.85208115 161.25909882 450.98150604 160.51038513 451.11485291 159.73898315 C451.67201564 156.42001304 452 153.37870688 452 150 C450.54119891 150.14107747 449.08296449 150.28802415 447.625 150.4375 C446.81289063 150.51871094 446.00078125 150.59992188 445.1640625 150.68359375 C442.95727195 150.89090114 442.95727195 150.89090114 441 152 C405.96373974 157.50010812 372.36803862 148.48994044 343.90161133 127.81054688 C339.13389858 124.23320242 334.7381539 120.3250656 330.39453125 116.2421875 C328.39628314 114.371071 326.36490836 112.61006894 324.25 110.875 C320.40595888 107.59173665 317.21620348 103.89105903 314 100 C313.35587158 99.23236328 313.35587158 99.23236328 312.69873047 98.44921875 C301.48852721 85.04780777 292.27517971 70.68959935 283.875 55.390625 C283.25625 54.27171875 282.6375 53.1528125 282 52 C281.5565625 51.07832031 281.113125 50.15664063 280.65625 49.20703125 C278.35311254 46.13799194 276.12704227 45.58900568 272.5 44.4375 C271.22507324 44.02010255 269.95033522 43.60212818 268.67578125 43.18359375 C266.85626953 42.59771484 266.85626953 42.59771484 265 42 C263.22595518 41.34192696 261.45480194 40.67597263 259.6875 40 C246.23489981 35.11513037 232.24234732 31.61596814 218.375 28.125 C217.5242691 27.91067322 216.67353821 27.69634644 215.79702759 27.4755249 C197.37478304 22.86852501 178.81747618 19.38577984 160.0803833 16.33990479 C158.16576383 16.02708343 156.252488 15.70606741 154.33935547 15.38427734 C121.89440718 9.94914434 88.85202879 7.3804093 56 6 C55.31993896 5.97077454 54.63987793 5.94154907 53.93920898 5.91143799 C1.52754275 3.69881239 -51.59455208 3.52469816 -103.94744873 6.87042236 Z " fill="#F8F8FB" transform="translate(526,0)"/>
<path d="M0 0 C7.59 0 15.18 0 23 0 C23 151.14 23 302.28 23 458 C15.74 458 8.48 458 1 458 C0.06667277 395.89351075 -0.10009297 333.79190781 -0.09765625 271.6796875 C-0.09762838 270.69724914 -0.09760051 269.71481077 -0.09757179 268.70260155 C-0.09663031 243.3363405 -0.08600337 217.97008643 -0.07202661 192.60382962 C-0.06400319 177.87765109 -0.05860732 163.15147321 -0.05493164 148.42529297 C-0.05466892 147.37572146 -0.05440619 146.32614996 -0.05413551 145.24477325 C-0.05282969 139.97502978 -0.05156617 134.70528631 -0.05032361 129.43554282 C-0.04009642 86.29035846 -0.022533 43.14517957 0 0 Z " fill="#FEFEFE" transform="translate(499,422)"/>
<path d="M0 0 C0.66 0 1.32 0 2 0 C3.8017352 3.51576736 5.58953794 7.03844426 7.375 10.5625 C7.88289063 11.55314453 8.39078125 12.54378906 8.9140625 13.56445312 C11.48454829 18.65469142 13.70506308 23.43801192 15 29 C15.62261719 29.03738281 16.24523437 29.07476562 16.88671875 29.11328125 C27.33078425 29.85616457 37.6500195 31.45390258 48 33 C44.80614987 36.86889101 41.5642839 40.49357323 37.9140625 43.9375 C37.21152344 44.60523438 36.50898438 45.27296875 35.78515625 45.9609375 C34.33261091 47.33205625 32.86878926 48.691317 31.39453125 50.0390625 C27.20047291 54.0039209 27.20047291 54.0039209 25.3984375 59.3359375 C26.18393443 64.12032786 27.01584524 68.87711825 28 73.625 C28.37934583 75.47046619 28.75448934 77.31680222 29.125 79.1640625 C29.29257812 79.97311035 29.46015625 80.7821582 29.6328125 81.61572266 C30.01743247 84.11319513 30.06277829 86.47709751 30 89 C28.30631507 88.15315754 26.61270543 87.30616424 24.91943359 86.45849609 C23.46532677 85.73226089 22.00990467 85.00865364 20.55322266 84.28759766 C17.15932679 82.60372904 13.78743202 80.90507086 10.4765625 79.0625 C9.45304687 78.505625 8.42953125 77.94875 7.375 77.375 C6.02535156 76.61316406 6.02535156 76.61316406 4.6484375 75.8359375 C0.38936429 74.49162826 -2.87349456 76.46096521 -6.77661133 78.32861328 C-8.16529419 79.06700439 -8.16529419 79.06700439 -9.58203125 79.8203125 C-10.59587891 80.35527344 -11.60972656 80.89023438 -12.65429688 81.44140625 C-13.69650391 81.99699219 -14.73871094 82.55257812 -15.8125 83.125 C-17.90142135 84.23351078 -19.99121622 85.34037762 -22.08203125 86.4453125 C-23.00218018 86.93531738 -23.9223291 87.42532227 -24.87036133 87.93017578 C-27 89 -27 89 -28 89 C-27.60224033 80.98994316 -26.64973148 73.2930935 -24.9284668 65.47070312 C-24.12007052 61.59975676 -23.83016883 58.78172291 -25 55 C-26.81963522 52.61565366 -26.81963522 52.61565366 -29.18359375 50.390625 C-30.02857422 49.55402344 -30.87355469 48.71742188 -31.74414062 47.85546875 C-32.63294922 46.99566406 -33.52175781 46.13585937 -34.4375 45.25 C-35.32244141 44.37472656 -36.20738281 43.49945313 -37.11914062 42.59765625 C-41.19227171 38.30794081 -41.19227171 38.30794081 -46 35 C-46 34.34 -46 33.68 -46 33 C-45.10394043 32.99516602 -44.20788086 32.99033203 -43.28466797 32.98535156 C-26.87842161 33.05297093 -26.87842161 33.05297093 -12.46447754 26.61785889 C-6.16563023 19.16264247 -2.86709029 9.18747559 0 0 Z " fill="#E6242C" transform="translate(271,120)"/>
</svg>
